<svg width="1700" height="1333" viewBox="0 0 1918 1333" fill="none" xmlns="http://www.w3.org/2000/svg">
<rect width="1920" height="1331.32" fill="#2D2B31"/>
<mask id="mask0_2822_53223" style="mask-type:alpha" maskUnits="userSpaceOnUse" x="0" y="0" width="1919" height="1332">
<rect width="1918.67" height="1331.73" fill="white"/>
</mask>
<g mask="url(#mask0_2822_53223)">
<path opacity="0.15" fill-rule="evenodd" clip-rule="evenodd" d="M-226.851 649.212C209.519 649.212 563.267 295.646 563.267 -140.501C563.267 -576.648 209.519 -930.215 -226.851 -930.215C-663.221 -930.215 -1016.97 -576.648 -1016.97 -140.501C-1016.97 295.646 -663.221 649.212 -226.851 649.212ZM-226.852 382.868C-516.048 382.868 -750.488 148.548 -750.488 -140.501C-750.488 -429.549 -516.048 -663.869 -226.852 -663.869C62.3445 -663.869 296.784 -429.549 296.784 -140.501C296.784 148.548 62.3445 382.868 -226.852 382.868Z" fill="url(#paint0_linear_2822_53223)"/>
<path opacity="0.15" fill-rule="evenodd" clip-rule="evenodd" d="M2142 1645.16C2578.3 1645.16 2932 1291.42 2932 855.062C2932 418.705 2578.3 64.9668 2142 64.9668C1705.7 64.9668 1352 418.705 1352 855.062C1352 1291.42 1705.7 1645.16 2142 1645.16ZM2142.17 1379C1852.98 1379 1618.54 1144.68 1618.54 855.63C1618.54 566.582 1852.98 332.262 2142.17 332.262C2431.37 332.262 2665.81 566.582 2665.81 855.63C2665.81 1144.68 2431.37 1379 2142.17 1379Z" fill="url(#paint1_linear_2822_53223)"/>
<path opacity="0.08" fill-rule="evenodd" clip-rule="evenodd" d="M472.585 647.035C478.806 643.445 486.469 643.445 492.689 647.035L559.664 685.683C565.889 689.275 569.724 695.916 569.724 703.103V780.381C569.724 787.568 565.889 794.209 559.664 797.801L492.689 836.449C486.469 840.039 478.806 840.039 472.585 836.449L405.61 797.801C399.385 794.209 395.55 787.568 395.55 780.381V703.103C395.55 695.916 399.385 689.275 405.61 685.683L472.585 647.035Z" fill="white"/>
<g opacity="0.2">
<mask id="mask1_2822_53223" style="mask-type:alpha" maskUnits="userSpaceOnUse" x="383" y="633" width="175" height="196">
<path fill-rule="evenodd" clip-rule="evenodd" d="M460.519 636.314C466.739 632.725 474.402 632.725 480.623 636.314L547.598 674.962C553.823 678.554 557.658 685.195 557.658 692.382V769.661C557.658 776.847 553.823 783.488 547.598 787.08L480.623 825.728C474.402 829.318 466.739 829.318 460.519 825.728L393.544 787.08C387.319 783.488 383.484 776.847 383.484 769.661V692.382C383.484 685.195 387.319 678.554 393.544 674.962L460.519 636.314Z" fill="white"/>
</mask>
<g mask="url(#mask1_2822_53223)">
<path fill-rule="evenodd" clip-rule="evenodd" d="M503.623 564.29L693.951 972.24L695.629 971.458L505.301 563.508L503.623 564.29ZM684.693 972.24L494.365 564.29L496.044 563.508L686.371 971.458L684.693 972.24ZM485.104 564.29L675.431 972.24L677.109 971.458L486.782 563.508L485.104 564.29ZM666.173 972.24L475.846 564.29L477.524 563.508L667.852 971.458L666.173 972.24ZM466.584 564.29L656.911 972.24L658.59 971.458L468.262 563.508L466.584 564.29ZM647.654 972.24L457.326 564.29L459.005 563.508L649.332 971.458L647.654 972.24ZM448.064 564.29L638.392 972.24L640.07 971.458L449.743 563.508L448.064 564.29ZM629.134 972.24L438.807 564.29L440.485 563.508L630.812 971.458L629.134 972.24ZM429.549 564.29L619.876 972.24L621.555 971.457L431.227 563.508L429.549 564.29ZM610.615 972.24L420.287 564.29L421.966 563.508L612.293 971.457L610.615 972.24ZM411.029 564.29L601.357 972.24L603.035 971.457L412.708 563.508L411.029 564.29ZM592.095 972.24L401.768 564.29L403.446 563.508L593.773 971.457L592.095 972.24ZM392.51 564.29L582.837 972.24L584.516 971.457L394.188 563.508L392.51 564.29ZM573.576 972.24L383.248 564.29L384.926 563.508L575.254 971.457L573.576 972.24ZM373.99 564.29L564.318 972.24L565.996 971.457L375.669 563.508L373.99 564.29ZM555.056 972.24L364.729 564.29L366.407 563.508L556.734 971.457L555.056 972.24ZM355.471 564.29L545.798 972.24L547.477 971.457L357.149 563.508L355.471 564.29ZM536.54 972.24L346.213 564.29L347.891 563.508L538.219 971.457L536.54 972.24ZM336.951 564.29L527.279 972.24L528.957 971.457L338.63 563.508L336.951 564.29ZM518.021 972.24L327.693 564.29L329.372 563.508L519.699 971.457L518.021 972.24ZM318.432 564.29L508.759 972.24L510.438 971.458L320.11 563.508L318.432 564.29ZM499.501 972.24L309.174 564.29L310.852 563.508L501.18 971.458L499.501 972.24ZM299.912 564.29L490.24 972.24L491.918 971.458L301.591 563.508L299.912 564.29ZM480.982 972.24L290.654 564.29L292.333 563.508L482.66 971.458L480.982 972.24ZM281.397 564.29L471.724 972.24L473.402 971.458L283.075 563.508L281.397 564.29ZM272.135 564.29L462.462 972.24L464.141 971.458L273.813 563.508L272.135 564.29Z" fill="white"/>
</g>
</g>
<path opacity="0.1" fill-rule="evenodd" clip-rule="evenodd" d="M1444.02 505.22C1444.02 507.426 1442.23 509.215 1440.02 509.215C1437.82 509.215 1436.03 507.426 1436.03 505.22C1436.03 503.013 1437.82 501.225 1440.02 501.225C1442.23 501.225 1444.02 503.013 1444.02 505.22ZM1440.02 530.522C1442.23 530.522 1444.02 528.733 1444.02 526.526C1444.02 524.32 1442.23 522.531 1440.02 522.531C1437.82 522.531 1436.03 524.32 1436.03 526.526C1436.03 528.733 1437.82 530.522 1440.02 530.522ZM1444.02 547.835C1444.02 550.041 1442.23 551.83 1440.02 551.83C1437.82 551.83 1436.03 550.041 1436.03 547.835C1436.03 545.629 1437.82 543.84 1440.02 543.84C1442.23 543.84 1444.02 545.629 1444.02 547.835ZM1440.02 573.137C1442.23 573.137 1444.02 571.348 1444.02 569.142C1444.02 566.935 1442.23 565.146 1440.02 565.146C1437.82 565.146 1436.03 566.935 1436.03 569.142C1436.03 571.348 1437.82 573.137 1440.02 573.137ZM1444.02 590.45C1444.02 592.657 1442.23 594.445 1440.02 594.445C1437.82 594.445 1436.03 592.657 1436.03 590.45C1436.03 588.244 1437.82 586.455 1440.02 586.455C1442.23 586.455 1444.02 588.244 1444.02 590.45ZM1440.02 615.754C1442.23 615.754 1444.02 613.965 1444.02 611.759C1444.02 609.552 1442.23 607.764 1440.02 607.764C1437.82 607.764 1436.03 609.552 1436.03 611.759C1436.03 613.965 1437.82 615.754 1440.02 615.754ZM1358.75 633.065C1358.75 635.272 1356.96 637.061 1354.75 637.061C1352.54 637.061 1350.75 635.272 1350.75 633.065C1350.75 630.859 1352.54 629.07 1354.75 629.07C1356.96 629.07 1358.75 630.859 1358.75 633.065ZM1444.02 633.066C1444.02 635.272 1442.23 637.061 1440.02 637.061C1437.82 637.061 1436.03 635.272 1436.03 633.066C1436.03 630.859 1437.82 629.07 1440.02 629.07C1442.23 629.07 1444.02 630.859 1444.02 633.066ZM1312.11 658.367C1314.32 658.367 1316.11 656.579 1316.11 654.372C1316.11 652.166 1314.32 650.377 1312.11 650.377C1309.91 650.377 1308.12 652.166 1308.12 654.372C1308.12 656.579 1309.91 658.367 1312.11 658.367ZM1337.43 654.372C1337.43 656.579 1335.64 658.367 1333.43 658.367C1331.23 658.367 1329.44 656.579 1329.44 654.372C1329.44 652.166 1331.23 650.377 1333.43 650.377C1335.64 650.377 1337.43 652.166 1337.43 654.372ZM1354.75 658.367C1356.96 658.367 1358.75 656.579 1358.75 654.372C1358.75 652.166 1356.96 650.377 1354.75 650.377C1352.54 650.377 1350.75 652.166 1350.75 654.372C1350.75 656.579 1352.54 658.367 1354.75 658.367ZM1380.07 654.372C1380.07 656.579 1378.28 658.367 1376.07 658.367C1373.86 658.367 1372.07 656.579 1372.07 654.372C1372.07 652.166 1373.86 650.377 1376.07 650.377C1378.28 650.377 1380.07 652.166 1380.07 654.372ZM1397.39 658.367C1399.6 658.367 1401.39 656.579 1401.39 654.372C1401.39 652.166 1399.6 650.377 1397.39 650.377C1395.18 650.377 1393.39 652.166 1393.39 654.372C1393.39 656.579 1395.18 658.367 1397.39 658.367ZM1422.71 654.372C1422.71 656.579 1420.92 658.367 1418.71 658.367C1416.5 658.367 1414.71 656.579 1414.71 654.372C1414.71 652.166 1416.5 650.377 1418.71 650.377C1420.92 650.377 1422.71 652.166 1422.71 654.372ZM1444.02 654.372C1444.02 656.579 1442.23 658.367 1440.02 658.367C1437.82 658.367 1436.03 656.579 1436.03 654.372C1436.03 652.166 1437.82 650.377 1440.02 650.377C1442.23 650.377 1444.02 652.166 1444.02 654.372ZM1418.71 637.061C1420.92 637.061 1422.71 635.272 1422.71 633.066C1422.71 630.859 1420.92 629.07 1418.71 629.07C1416.5 629.07 1414.71 630.859 1414.71 633.066C1414.71 635.272 1416.5 637.061 1418.71 637.061ZM1401.39 633.066C1401.39 635.272 1399.6 637.061 1397.39 637.061C1395.18 637.061 1393.39 635.272 1393.39 633.066C1393.39 630.859 1395.18 629.07 1397.39 629.07C1399.6 629.07 1401.39 630.859 1401.39 633.066ZM1376.07 637.061C1378.28 637.061 1380.07 635.272 1380.07 633.066C1380.07 630.859 1378.28 629.07 1376.07 629.07C1373.86 629.07 1372.07 630.859 1372.07 633.066C1372.07 635.272 1373.86 637.061 1376.07 637.061ZM1333.43 637.061C1335.64 637.061 1337.43 635.272 1337.43 633.066C1337.43 630.859 1335.64 629.07 1333.43 629.07C1331.23 629.07 1329.44 630.859 1329.44 633.066C1329.44 635.272 1331.23 637.061 1333.43 637.061ZM1316.11 633.066C1316.11 635.272 1314.32 637.061 1312.11 637.061C1309.91 637.061 1308.12 635.272 1308.12 633.066C1308.12 630.859 1309.91 629.07 1312.11 629.07C1314.32 629.07 1316.11 630.859 1316.11 633.066ZM1422.71 611.759C1422.71 613.965 1420.92 615.754 1418.71 615.754C1416.5 615.754 1414.71 613.965 1414.71 611.759C1414.71 609.552 1416.5 607.764 1418.71 607.764C1420.92 607.764 1422.71 609.552 1422.71 611.759ZM1397.39 615.754C1399.6 615.754 1401.39 613.965 1401.39 611.759C1401.39 609.552 1399.6 607.764 1397.39 607.764C1395.18 607.764 1393.39 609.552 1393.39 611.759C1393.39 613.965 1395.18 615.754 1397.39 615.754ZM1380.07 611.759C1380.07 613.965 1378.28 615.754 1376.07 615.754C1373.86 615.754 1372.07 613.965 1372.07 611.759C1372.07 609.552 1373.86 607.764 1376.07 607.764C1378.28 607.764 1380.07 609.552 1380.07 611.759ZM1354.75 615.754C1356.96 615.754 1358.75 613.965 1358.75 611.759C1358.75 609.552 1356.96 607.764 1354.75 607.764C1352.54 607.764 1350.75 609.552 1350.75 611.759C1350.75 613.965 1352.54 615.754 1354.75 615.754ZM1337.43 611.759C1337.43 613.965 1335.64 615.754 1333.43 615.754C1331.23 615.754 1329.44 613.965 1329.44 611.759C1329.44 609.552 1331.23 607.764 1333.43 607.764C1335.64 607.764 1337.43 609.552 1337.43 611.759ZM1312.11 615.754C1314.32 615.754 1316.11 613.965 1316.11 611.759C1316.11 609.552 1314.32 607.764 1312.11 607.764C1309.91 607.764 1308.12 609.552 1308.12 611.759C1308.12 613.965 1309.91 615.754 1312.11 615.754ZM1418.71 594.445C1420.92 594.445 1422.71 592.657 1422.71 590.45C1422.71 588.244 1420.92 586.455 1418.71 586.455C1416.5 586.455 1414.71 588.244 1414.71 590.45C1414.71 592.657 1416.5 594.445 1418.71 594.445ZM1401.39 590.45C1401.39 592.657 1399.6 594.445 1397.39 594.445C1395.18 594.445 1393.39 592.657 1393.39 590.45C1393.39 588.244 1395.18 586.455 1397.39 586.455C1399.6 586.455 1401.39 588.244 1401.39 590.45ZM1376.07 594.445C1378.28 594.445 1380.07 592.657 1380.07 590.45C1380.07 588.244 1378.28 586.455 1376.07 586.455C1373.86 586.455 1372.07 588.244 1372.07 590.45C1372.07 592.657 1373.86 594.445 1376.07 594.445ZM1358.75 590.45C1358.75 592.657 1356.96 594.445 1354.75 594.445C1352.54 594.445 1350.75 592.657 1350.75 590.45C1350.75 588.244 1352.54 586.455 1354.75 586.455C1356.96 586.455 1358.75 588.244 1358.75 590.45ZM1333.43 594.445C1335.64 594.445 1337.43 592.657 1337.43 590.45C1337.43 588.244 1335.64 586.455 1333.43 586.455C1331.23 586.455 1329.44 588.244 1329.44 590.45C1329.44 592.657 1331.23 594.445 1333.43 594.445ZM1316.11 590.45C1316.11 592.657 1314.32 594.445 1312.11 594.445C1309.91 594.445 1308.12 592.657 1308.12 590.45C1308.12 588.244 1309.91 586.455 1312.11 586.455C1314.32 586.455 1316.11 588.244 1316.11 590.45ZM1422.71 569.142C1422.71 571.348 1420.92 573.137 1418.71 573.137C1416.5 573.137 1414.71 571.348 1414.71 569.142C1414.71 566.935 1416.5 565.146 1418.71 565.146C1420.92 565.146 1422.71 566.935 1422.71 569.142ZM1397.39 573.137C1399.6 573.137 1401.39 571.348 1401.39 569.142C1401.39 566.935 1399.6 565.146 1397.39 565.146C1395.18 565.146 1393.39 566.935 1393.39 569.142C1393.39 571.348 1395.18 573.137 1397.39 573.137ZM1380.07 569.142C1380.07 571.348 1378.28 573.137 1376.07 573.137C1373.86 573.137 1372.07 571.348 1372.07 569.142C1372.07 566.935 1373.86 565.146 1376.07 565.146C1378.28 565.146 1380.07 566.935 1380.07 569.142ZM1354.75 573.137C1356.96 573.137 1358.75 571.348 1358.75 569.142C1358.75 566.935 1356.96 565.146 1354.75 565.146C1352.54 565.146 1350.75 566.935 1350.75 569.142C1350.75 571.348 1352.54 573.137 1354.75 573.137ZM1337.43 569.142C1337.43 571.348 1335.64 573.137 1333.43 573.137C1331.23 573.137 1329.44 571.348 1329.44 569.142C1329.44 566.935 1331.23 565.146 1333.43 565.146C1335.64 565.146 1337.43 566.935 1337.43 569.142ZM1312.11 573.137C1314.32 573.137 1316.11 571.348 1316.11 569.142C1316.11 566.935 1314.32 565.146 1312.11 565.146C1309.91 565.146 1308.12 566.935 1308.12 569.142C1308.12 571.348 1309.91 573.137 1312.11 573.137ZM1418.71 551.83C1420.92 551.83 1422.71 550.041 1422.71 547.835C1422.71 545.629 1420.92 543.84 1418.71 543.84C1416.5 543.84 1414.71 545.629 1414.71 547.835C1414.71 550.041 1416.5 551.83 1418.71 551.83ZM1401.39 547.835C1401.39 550.041 1399.6 551.83 1397.39 551.83C1395.18 551.83 1393.39 550.041 1393.39 547.835C1393.39 545.629 1395.18 543.84 1397.39 543.84C1399.6 543.84 1401.39 545.629 1401.39 547.835ZM1376.07 551.83C1378.28 551.83 1380.07 550.041 1380.07 547.835C1380.07 545.629 1378.28 543.84 1376.07 543.84C1373.86 543.84 1372.07 545.629 1372.07 547.835C1372.07 550.041 1373.86 551.83 1376.07 551.83ZM1358.75 547.835C1358.75 550.041 1356.96 551.83 1354.75 551.83C1352.54 551.83 1350.75 550.041 1350.75 547.835C1350.75 545.629 1352.54 543.84 1354.75 543.84C1356.96 543.84 1358.75 545.629 1358.75 547.835ZM1333.43 551.83C1335.64 551.83 1337.43 550.041 1337.43 547.835C1337.43 545.629 1335.64 543.84 1333.43 543.84C1331.23 543.84 1329.44 545.629 1329.44 547.835C1329.44 550.041 1331.23 551.83 1333.43 551.83ZM1316.11 547.835C1316.11 550.041 1314.32 551.83 1312.11 551.83C1309.91 551.83 1308.12 550.041 1308.12 547.835C1308.12 545.629 1309.91 543.84 1312.11 543.84C1314.32 543.84 1316.11 545.629 1316.11 547.835ZM1422.71 526.526C1422.71 528.733 1420.92 530.522 1418.71 530.522C1416.5 530.522 1414.71 528.733 1414.71 526.526C1414.71 524.32 1416.5 522.531 1418.71 522.531C1420.92 522.531 1422.71 524.32 1422.71 526.526ZM1397.39 530.522C1399.6 530.522 1401.39 528.733 1401.39 526.526C1401.39 524.32 1399.6 522.531 1397.39 522.531C1395.18 522.531 1393.39 524.32 1393.39 526.526C1393.39 528.733 1395.18 530.522 1397.39 530.522ZM1380.07 526.526C1380.07 528.733 1378.28 530.522 1376.07 530.522C1373.86 530.522 1372.07 528.733 1372.07 526.526C1372.07 524.32 1373.86 522.531 1376.07 522.531C1378.28 522.531 1380.07 524.32 1380.07 526.526ZM1354.75 530.522C1356.96 530.522 1358.75 528.733 1358.75 526.526C1358.75 524.32 1356.96 522.531 1354.75 522.531C1352.54 522.531 1350.75 524.32 1350.75 526.526C1350.75 528.733 1352.54 530.522 1354.75 530.522ZM1337.43 526.526C1337.43 528.733 1335.64 530.522 1333.43 530.522C1331.23 530.522 1329.44 528.733 1329.44 526.526C1329.44 524.32 1331.23 522.531 1333.43 522.531C1335.64 522.531 1337.43 524.32 1337.43 526.526ZM1312.11 530.522C1314.32 530.522 1316.11 528.733 1316.11 526.526C1316.11 524.32 1314.32 522.531 1312.11 522.531C1309.91 522.531 1308.12 524.32 1308.12 526.526C1308.12 528.733 1309.91 530.522 1312.11 530.522ZM1418.71 509.215C1420.92 509.215 1422.71 507.426 1422.71 505.22C1422.71 503.013 1420.92 501.225 1418.71 501.225C1416.5 501.225 1414.71 503.013 1414.71 505.22C1414.71 507.426 1416.5 509.215 1418.71 509.215ZM1401.39 505.22C1401.39 507.426 1399.6 509.215 1397.39 509.215C1395.18 509.215 1393.39 507.426 1393.39 505.22C1393.39 503.013 1395.18 501.225 1397.39 501.225C1399.6 501.225 1401.39 503.013 1401.39 505.22ZM1376.07 509.215C1378.28 509.215 1380.07 507.426 1380.07 505.22C1380.07 503.013 1378.28 501.225 1376.07 501.225C1373.86 501.225 1372.07 503.013 1372.07 505.22C1372.07 507.426 1373.86 509.215 1376.07 509.215ZM1358.75 505.22C1358.75 507.426 1356.96 509.215 1354.75 509.215C1352.54 509.215 1350.75 507.426 1350.75 505.22C1350.75 503.013 1352.54 501.225 1354.75 501.225C1356.96 501.225 1358.75 503.013 1358.75 505.22ZM1333.43 509.215C1335.64 509.215 1337.43 507.426 1337.43 505.22C1337.43 503.013 1335.64 501.225 1333.43 501.225C1331.23 501.225 1329.44 503.013 1329.44 505.22C1329.44 507.426 1331.23 509.215 1333.43 509.215ZM1316.11 505.22C1316.11 507.426 1314.32 509.215 1312.11 509.215C1309.91 509.215 1308.12 507.426 1308.12 505.22C1308.12 503.013 1309.91 501.225 1312.11 501.225C1314.32 501.225 1316.11 503.013 1316.11 505.22Z" fill="white"/>
</g>
<path fill-rule="evenodd" clip-rule="evenodd" d="M1921 1332.32H0V1099.44C320.167 1170.41 640.333 1205.9 960.5 1205.9C1280.67 1205.9 1600.83 1170.41 1921 1099.44V1332.32Z" fill="white"/>
<defs>
<linearGradient id="paint0_linear_2822_53223" x1="563.267" y1="-928.11" x2="-1012.76" y2="-928.11" gradientUnits="userSpaceOnUse">
<stop stop-color="white" stop-opacity="0.01"/>
<stop offset="1" stop-color="white"/>
</linearGradient>
<linearGradient id="paint1_linear_2822_53223" x1="2932.29" y1="68.0212" x2="1356.27" y2="68.0212" gradientUnits="userSpaceOnUse">
<stop stop-color="white"/>
<stop offset="1" stop-color="white" stop-opacity="0.01"/>
</linearGradient>
</defs>
</svg>
